<svg width="1440" height="327" viewBox="0 0 1440 327" fill="none" xmlns="http://www.w3.org/2000/svg">
<path d="M422.699 13.8372C185.172 24.5106 -1.96246 112.122 -65.8389 154.594L-70 327.043L1545.03 366.013L1551.92 80.5961C1503.75 107.609 1362.36 159.446 1182.12 150.696C956.817 139.758 719.607 0.495478 422.699 13.8372Z" fill="#A61F1F"/>
<path d="M392.863 77.4899C156.229 100.671 -26.0262 198.027 -87.5746 243.807L-82.6381 416.236L1532.2 370.005L1524.03 84.6215C1477.36 114.136 1338.89 173.356 1158.44 174.12C932.876 175.076 688.654 48.5132 392.863 77.4899Z" fill="#761010"/>
<path d="M384.456 143.064C149.603 180.168 -26.5903 288.108 -85.3302 337.44L-70.2279 509.277L1539.07 367.842L1514.07 83.4378C1469.22 115.655 1334.5 182.942 1154.4 194.353C929.287 208.616 678.023 96.6842 384.456 143.064Z" fill="#500808"/>
</svg>
