<svg width="41" height="41" viewBox="0 0 41 41" fill="none" xmlns="http://www.w3.org/2000/svg">
<path fill-rule="evenodd" clip-rule="evenodd" d="M28.0338 34.0491C32.7857 31.4012 36 26.326 36 20.5C36 11.9396 29.0604 5 20.5 5C11.9396 5 5 11.9396 5 20.5C5 26.3259 8.21421 31.4011 12.9661 34.0491L10.4654 38.3803C4.21935 34.8675 0 28.1765 0 20.5C0 9.17816 9.17816 0 20.5 0C31.8218 0 41 9.17816 41 20.5C41 28.1765 36.7806 34.8675 30.5345 38.3804L28.0338 34.0491ZM17.7533 35.7574C18.6448 35.9168 19.5627 36 20.5 36C21.4373 36 22.3552 35.9168 23.2466 35.7574L25.8641 40.2911C24.1544 40.7534 22.356 41 20.5 41C18.644 41 16.8456 40.7533 15.1358 40.291L17.7533 35.7574Z" fill="black"/>
<circle cx="21" cy="21" r="8.5" stroke="black" stroke-width="5"/>
</svg>
